<svg xmlns="http://www.w3.org/2000/svg" viewBox="0 0 30 17.88">
  <g id="Camada_2" data-name="Camada 2" fill="currentColor">
    <g id="Camada_1-2" data-name="Camada 1">
      <g id="Camada_1-2-2" data-name="Camada 1-2">
        <path d="M13.31,3.57A2.34,2.34,0,0,1,14,1.88a2.38,2.38,0,0,1,3.37,0h0L29.3,13.81a2.38,2.38,0,1,1-3.37,3.37L14,5.25a2.35,2.35,0,0,1-.7-1.68"/>
        <path d="M1.39,15.5a2.39,2.39,0,0,1,.7-1.69L14,1.88a2.38,2.38,0,0,1,3.37,3.37L5.46,17.18a2.38,2.38,0,0,1-3.37,0h0a2.35,2.35,0,0,1-.7-1.68"/>
      </g>
    </g>
  </g>
</svg>