<svg xmlns="http://www.w3.org/2000/svg" viewBox="0 0 30 17.88">
  <g id="Camada_2" data-name="Camada 2" fill="currentColor">
    <g id="Camada_1-2" data-name="Camada 1">
      <g id="Camada_1-2-2" data-name="Camada 1-2">
        <path d="M16.69,14.31A2.38,2.38,0,0,1,12.63,16h0L.7,4.07A2.38,2.38,0,0,1,4.07.7L16,12.63a2.35,2.35,0,0,1,.7,1.68"/>
        <path d="M28.61,2.38a2.39,2.39,0,0,1-.7,1.69L16,16a2.38,2.38,0,0,1-3.37-3.37L24.54.7A2.37,2.37,0,0,1,27.9.7h0a2.35,2.35,0,0,1,.7,1.68"/>
      </g>
    </g>
  </g>
</svg>