<svg xmlns="http://www.w3.org/2000/svg" viewBox="0 0 40 28.63" fill="currentColor">
  <g id="Camada_1-2" data-name="Camada 1">
    <path d="M39.38,12.82H37a.63.63,0,0,1,0-1.25h2.39a.63.63,0,0,1,0,1.25"/>
    <path d="M32.9,2.93a.62.62,0,0,1-.44-.18.61.61,0,0,1,0-.88L34.14.18a.63.63,0,0,1,.88,0,.61.61,0,0,1,0,.88L33.34,2.75a.66.66,0,0,1-.44.18"/>
    <path d="M34.58,24.39a.62.62,0,0,1-.44-.18l-1.78-1.78a.63.63,0,0,1,0-.88.61.61,0,0,1,.88,0L35,23.33a.61.61,0,0,1,0,.88.62.62,0,0,1-.44.18"/>
    <path d="M28.09,1.09a2.35,2.35,0,0,0-2.44.12L18,6.31H5.89a5.89,5.89,0,0,0,0,11.78H7.12l1.19,7.12a4.09,4.09,0,1,0,8.06-1.34l-1-5.78H18l7.65,5.1a2.38,2.38,0,0,0,1.32.4,2.35,2.35,0,0,0,1.12-.28,2.39,2.39,0,0,0,1.25-2.1v-18A2.38,2.38,0,0,0,28.09,1.09ZM1.25,12.2A4.65,4.65,0,0,1,5.89,7.55H17.56v9.29H5.89A4.64,4.64,0,0,1,1.25,12.2ZM15.14,24.07a2.84,2.84,0,1,1-5.6.94L8.38,18.09h5.77Zm13-2.86a1.13,1.13,0,0,1-.6,1,1.1,1.1,0,0,1-1.16-.06l-7.53-5V7.26l7.53-5a1.14,1.14,0,0,1,1.76.95Z"/>
  </g>
</svg>