<svg xmlns="http://www.w3.org/2000/svg" viewBox="0 0 28.81 34.75">
  <g id="Camada_2" data-name="Camada 2">
    <g id="Camada_1-2" data-name="Camada 1">
      <g style="opacity:0.100005999207497">
        <line x1="13.65" y1="26.53" x2="13.65" y2="15.58" style="fill:none;stroke:#0097eb;stroke-miterlimit:10;stroke-width:2.75px"/>
        <path d="M3.85,22.91a5,5,0,0,0-2.47,3.93c0,3.61,5.49,6.53,12.27,6.53s12.28-2.92,12.28-6.53A4.92,4.92,0,0,0,23.54,23l-.07-.05" style="fill:none;stroke:#0097eb;stroke-miterlimit:10;stroke-width:2.75px"/>
        <path d="M19.75,9.12A6.1,6.1,0,1,1,13.66,3,6.09,6.09,0,0,1,19.75,9.12Z" style="fill:none;stroke:#0097eb;stroke-miterlimit:10;stroke-width:2.75px"/>
      </g>
      <line x1="15.15" y1="24.88" x2="15.15" y2="13.93" style="fill:none;stroke:#bbc8cf;stroke-linecap:round;stroke-linejoin:round;stroke-width:2.75px"/>
      <path d="M25,21.26l.08,0a4.94,4.94,0,0,1,2.39,3.87c0,3.62-5.5,6.54-12.28,6.54S2.87,28.8,2.87,25.18a5,5,0,0,1,2.48-3.92" style="fill:none;stroke:#bbc8cf;stroke-linecap:round;stroke-linejoin:round;stroke-width:2.75px"/>
      <path d="M21.24,7.46a6.09,6.09,0,1,1-6.09-6.08A6.08,6.08,0,0,1,21.24,7.46Z" style="fill:none;stroke:#bbc8cf;stroke-linecap:round;stroke-linejoin:round;stroke-width:2.75px"/>
    </g>
  </g>
</svg>