<svg xmlns="http://www.w3.org/2000/svg" viewBox="0 0 25 25">
  <g id="Camada_2" data-name="Camada 2">
    <g id="Camada_1-2" data-name="Camada 1">
      <path d="M25,12.5A12.5,12.5,0,1,1,12.5,0,12.5,12.5,0,0,1,25,12.5" style="fill:#a7a7a7"/>
      <path d="M17.07,15,14.59,12.5,17.07,10A1.48,1.48,0,0,0,15,7.93L12.5,10.41,10,7.93A1.48,1.48,0,0,0,7.93,10l2.48,2.47L7.93,15a1.5,1.5,0,0,0,0,2.1,1.5,1.5,0,0,0,2.1,0l2.47-2.48L15,17.07a1.5,1.5,0,0,0,2.1,0A1.5,1.5,0,0,0,17.07,15Z" style="fill:#f2f2f2"/>
    </g>
  </g>
</svg>