<svg xmlns="http://www.w3.org/2000/svg" viewBox="0 0 19.06 23.45">
  <g id="Camada_2" data-name="Camada 2" fill="currentColor" fill-rule="evenodd">
    <g id="Camada_1-2" data-name="Camada 1">
      <path d="M18.33,3.65H13.18v-2A1.66,1.66,0,0,0,11.5,0H7.57A1.67,1.67,0,0,0,5.88,1.66v2H.73a.74.74,0,0,0,0,1.47h1L3.44,22A1.55,1.55,0,0,0,5,23.45h9.12a1.56,1.56,0,0,0,1.54-1.4l1.7-16.93h1a.74.74,0,0,0,0-1.47Zm-11-2a.22.22,0,0,1,.22-.22H11.5a.22.22,0,0,1,.22.22v2H7.35Zm6.82,20.25a.1.1,0,0,1-.08.08H5a.12.12,0,0,1-.08-.09L3.21,5.12H15.85Z"/>
    </g>
  </g>
</svg>